<?xml version="1.0" encoding="utf-8"?>
<!-- Generator: Adobe Illustrator 15.0.0, SVG Export Plug-In . SVG Version: 6.00 Build 0)  -->
<!DOCTYPE svg PUBLIC "-//W3C//DTD SVG 1.1//EN" "http://www.w3.org/Graphics/SVG/1.1/DTD/svg11.dtd">
<svg version="1.1" id="Layer_1" xmlns="http://www.w3.org/2000/svg" xmlns:xlink="http://www.w3.org/1999/xlink" x="0px" y="0px"
	 width="456px" height="304.667px" viewBox="0 0 456 304.667" enable-background="new 0 0 456 304.667" xml:space="preserve">
<circle fill="#22BCBC" cx="303.024" cy="152.388" r="148.44"/>
<circle fill="#22BCBC" cx="153.589" cy="152.388" r="148.44"/>
<linearGradient id="SVGID_1_" gradientUnits="userSpaceOnUse" x1="2278.0688" y1="98.6055" x2="2330.2544" y2="88.4616" gradientTransform="matrix(-1 0 0 1 2496.3135 0)">
	<stop  offset="0" style="stop-color:#292929;stop-opacity:0.75"/>
	<stop  offset="1" style="stop-color:#828282;stop-opacity:0"/>
</linearGradient>
<path fill="url(#SVGID_1_)" d="M159.971,3.949c25.028,0.978,48.464,8.155,68.817,20.037
	c-44.091,25.736-73.722,73.546-73.722,128.281c0,6.578,0.433,13.055,1.263,19.406c-4.515-6.324-8.533-13.098-11.981-20.311
	C121.342,103.25,129.197,47.673,159.971,3.949z"/>
<linearGradient id="SVGID_2_" gradientUnits="userSpaceOnUse" x1="-5842.0288" y1="1656.3477" x2="-5785.0879" y2="1651.366" gradientTransform="matrix(1 0 0 -1 6072.7227 1867.3848)">
	<stop  offset="0" style="stop-color:#292929;stop-opacity:0.75"/>
	<stop  offset="1" style="stop-color:#575757;stop-opacity:0"/>
</linearGradient>
<path fill="url(#SVGID_2_)" d="M297.607,300.826c-25.028-0.978-48.463-8.155-68.818-20.037
	c44.092-25.736,73.723-73.546,73.723-128.281c0-6.578-0.433-13.055-1.263-19.406c4.514,6.324,8.533,13.098,11.98,20.311
	C336.237,201.525,328.381,257.103,297.607,300.826z"/>
<g>
	<polygon fill="#F5F5F5" points="372.584,175.087 290.784,175.213 290.784,127.21 372.584,127.21 372.584,84.565 242.053,84.565 
		242.053,139.377 242.053,163.046 242.053,217.856 372.584,217.73 	"/>
	<polygon fill="#F5F5F5" points="242.565,85.004 194.229,145.508 145.892,85.004 145.892,84.565 84.03,84.565 194.229,218.601 
		304.059,84.565 242.565,84.565 	"/>
</g>
<linearGradient id="SVGID_3_" gradientUnits="userSpaceOnUse" x1="-347.6182" y1="152.3149" x2="-337.8369" y2="152.8275" gradientTransform="matrix(-1 0 0 1 -101.3135 0)">
	<stop  offset="0" style="stop-color:#292929;stop-opacity:0.85"/>
	<stop  offset="1" style="stop-color:#FFFFFF;stop-opacity:0"/>
</linearGradient>
<polygon fill="url(#SVGID_3_)" points="233.368,220.21 242.053,220.21 242.053,84.865 233.784,96.056 "/>
</svg>
