<?xml version="1.0" encoding="utf-8"?>
<!-- Generator: Adobe Illustrator 15.1.0, SVG Export Plug-In . SVG Version: 6.00 Build 0)  -->
<!DOCTYPE svg PUBLIC "-//W3C//DTD SVG 1.1//EN" "http://www.w3.org/Graphics/SVG/1.1/DTD/svg11.dtd">
<svg version="1.1" id="Layer_1" xmlns="http://www.w3.org/2000/svg" xmlns:xlink="http://www.w3.org/1999/xlink" x="0px" y="0px"
	 width="300px" height="300px" viewBox="0 0 300 300" enable-background="new 0 0 300 300" xml:space="preserve">
<g>
	<rect x="9.068" y="8.358" fill="#B9B68B" width="283.028" height="284.644"/>
	<g>
		<path fill="#FFFFFF" d="M274,176v-50h-23.752c-2.667-10-8.26-23.638-16.192-35.437l13.338-11.162L218.403,51.5l-13.904,13.889
			C192.658,57.432,181,52.372,164,49.718V28h-43v22.231c-10,2.764-23.883,7.98-34.761,15.137L74.251,52.591L45.646,81.58
			l12.678,8.125C50.084,101.707,44.458,116,41.736,126H26v50h16.186c2.828,13,8.253,26.078,15.738,37.211L44.58,226.495
			l28.986,28.954l11.785-13.365C96.447,249.543,111,254.934,121,257.77V275h43v-16.717c17-2.719,29.327-8.549,41.372-16.816
			l14.218,13.938l29.125-28.982l-14.164-14.096c7.181-10.92,12.49-30.326,15.233-36.326H274z M145.388,227.121
			c-39.306-0.281-72.312-33.002-73.211-72.01c-0.958-41.522,35.105-75.011,73.811-75.094c41.539-0.088,75.715,33.679,75.207,75.211
			C220.7,195.318,187.095,227.426,145.388,227.121z"/>
	</g>
	<path fill="#FFFFFF" d="M188.38,153.596c0,22.812-18.486,41.297-41.296,41.297c-22.807,0-41.297-18.484-41.297-41.297
		c0-22.806,18.491-41.296,41.297-41.296C169.894,112.299,188.38,130.79,188.38,153.596z"/>
	<rect x="8" y="8.084" fill="none" width="283.026" height="284.646"/>
</g>
</svg>
