<?xml version="1.0" encoding="utf-8"?>
<!-- Generator: Adobe Illustrator 15.1.0, SVG Export Plug-In . SVG Version: 6.00 Build 0)  -->
<!DOCTYPE svg PUBLIC "-//W3C//DTD SVG 1.1//EN" "http://www.w3.org/Graphics/SVG/1.1/DTD/svg11.dtd">
<svg version="1.1" id="Layer_1" xmlns="http://www.w3.org/2000/svg" xmlns:xlink="http://www.w3.org/1999/xlink" x="0px" y="0px"
	 width="300px" height="300px" viewBox="0 0 300 300" enable-background="new 0 0 300 300" xml:space="preserve">
<g>
	<circle fill="#B9B68B" cx="148.624" cy="147.605" r="136.098"/>
	<g>
		<rect x="98.317" y="64.968" fill="#FFFFFF" width="7.34" height="61.945"/>
	</g>
	<g>
		<rect x="98.317" y="156.164" fill="#FFFFFF" width="7.34" height="61.946"/>
	</g>
	<g>
		<polygon fill="#FFFFFF" points="200.913,223.271 193.574,223.271 193.574,146.068 100.886,146.068 100.886,138.728 
			200.913,138.728 		"/>
	</g>
	<g>
		<polygon fill="#B9B68B" points="101.226,175.556 145.199,143.051 101.226,110.551 59.165,141.142 		"/>
		<path fill="#FFFFFF" d="M101.111,180.202l-47.951-39.23l48.083-34.971l50.129,37.05L101.111,180.202z M65.17,141.312
			l36.171,29.595l37.684-27.856l-37.816-27.95L65.17,141.312z"/>
	</g>
	<g>
		<g>
			<rect x="168.639" y="202.779" fill="#B9B68B" width="59.499" height="35.337"/>
			<path fill="#FFFFFF" d="M231.807,241.784h-66.839v-42.676h66.839V241.784z M172.31,234.445h52.159v-27.996H172.31V234.445z"/>
		</g>
	</g>
	<g>
		<g>
			<rect x="72.809" y="50.698" fill="#B9B68B" width="59.5" height="35.334"/>
			<path fill="#FFFFFF" d="M135.98,89.701H69.138V47.028h66.842V89.701z M76.479,82.361h52.16V54.368h-52.16V82.361z"/>
		</g>
	</g>
	<g>
		<g>
			<rect x="72.237" y="202.779" fill="#B9B68B" width="59.499" height="35.337"/>
			<path fill="#FFFFFF" d="M135.406,241.784H68.567v-42.676h66.839V241.784z M75.907,234.445h52.158v-27.996H75.907V234.445z"/>
		</g>
	</g>
</g>
</svg>
