<?xml version="1.0" encoding="utf-8"?>
<!-- Generator: Adobe Illustrator 15.1.0, SVG Export Plug-In . SVG Version: 6.00 Build 0)  -->
<!DOCTYPE svg PUBLIC "-//W3C//DTD SVG 1.1//EN" "http://www.w3.org/Graphics/SVG/1.1/DTD/svg11.dtd">
<svg version="1.1" id="Layer_1" xmlns="http://www.w3.org/2000/svg" xmlns:xlink="http://www.w3.org/1999/xlink" x="0px" y="0px"
	 width="300px" height="300px" viewBox="0 0 300 300" enable-background="new 0 0 300 300" xml:space="preserve">
<g>
	<path fill-rule="evenodd" clip-rule="evenodd" fill="#166FB4" d="M293.437,152.01c0,79.213-64.232,143.432-143.439,143.432
		C70.776,295.441,6.56,231.223,6.56,152.01C6.56,72.797,70.776,8.572,149.997,8.572C229.204,8.572,293.437,72.797,293.437,152.01z"
		/>
	<g>
		<path fill-rule="evenodd" clip-rule="evenodd" fill="#FFFFFF" d="M224.4,100.828c-4.113,11.291-32.559,18.055-72.675,18.055
			c-40.11,0-67.541-7.743-72.669-18.7l0.07-0.091l0.035,102.655l-0.069,0.083c0,11.824,32.524,21.451,72.627,21.451
			c40.116,0,72.642-9.627,72.642-21.451l0,0l0.079-0.083l0.039-102.002L224.4,100.828z"/>
		<path fill-rule="evenodd" clip-rule="evenodd" fill="#FFFFFF" d="M224.597,91.494c0-10.386-32.517-18.768-72.63-18.768
			c-40.116,0-72.643,8.382-72.643,18.768c0,10.362,32.527,18.781,72.643,18.781C192.08,110.275,224.597,101.856,224.597,91.494
			L224.597,91.494z"/>
	</g>
</g>
</svg>
