<?xml version="1.0" encoding="utf-8"?>
<!-- Generator: Adobe Illustrator 15.1.0, SVG Export Plug-In . SVG Version: 6.00 Build 0)  -->
<!DOCTYPE svg PUBLIC "-//W3C//DTD SVG 1.1//EN" "http://www.w3.org/Graphics/SVG/1.1/DTD/svg11.dtd">
<svg version="1.1" id="Layer_1" xmlns="http://www.w3.org/2000/svg" xmlns:xlink="http://www.w3.org/1999/xlink" x="0px" y="0px"
	 width="150px" height="150px" viewBox="0 0 150 150" enable-background="new 0 0 150 150" xml:space="preserve">
<g>
	<path fill="#722F70" d="M135.148,25.642c-3.385,9.311-26.85,14.884-59.928,14.884c-33.077,0-55.689-6.379-59.927-15.415
		l0.062-0.076l0.033,104.894l-0.062,0.076c0,9.75,26.815,17.683,59.892,17.683c33.08,0,59.897-7.933,59.897-17.683l0,0l0.065-0.076
		l0.033-104.358L135.148,25.642z"/>
	<path fill="#722F70" d="M135.319,17.949c0-8.566-26.825-15.48-59.899-15.48c-33.077,0-59.895,6.914-59.895,15.48
		c0,8.538,26.819,15.487,59.895,15.487C108.494,33.436,135.319,26.486,135.319,17.949L135.319,17.949z"/>
	<path fill="#FFFFFF" d="M102.492,110.587c0.562,0,1.134,0.047,1.701,0.145c1.631-2.717,2.863-5.64,3.67-8.699
		c-2.89-1.906-4.597-5.065-4.597-8.538c0-3.43,1.758-6.667,4.616-8.558c-0.795-3.06-2.017-5.98-3.632-8.692
		c-0.59,0.103-1.179,0.155-1.758,0.155c-5.652,0-10.255-4.601-10.255-10.254c0-0.567,0.051-1.142,0.146-1.712
		c-2.665-1.57-5.537-2.76-8.547-3.544c-1.889,2.861-5.126,4.62-8.556,4.62c-3.474,0-6.633-1.709-8.542-4.599
		c-3.097,0.815-6.054,2.071-8.805,3.736c0.076,0.505,0.114,1.008,0.114,1.499c0,5.653-4.6,10.254-10.256,10.254
		c-0.461,0-0.927-0.034-1.412-0.103c-1.609,2.71-2.824,5.632-3.616,8.698c2.849,1.915,4.535,5.057,4.535,8.499
		c0,3.431-1.678,6.565-4.512,8.481c0.802,3.065,2.03,5.992,3.654,8.708c0.47-0.063,0.914-0.096,1.35-0.096
		c5.656,0,10.257,4.602,10.257,10.259c0,0.455-0.034,0.913-0.103,1.396c2.742,1.658,5.689,2.911,8.781,3.726
		c1.881-2.911,5.137-4.701,8.609-4.701c3.472,0,6.725,1.788,8.608,4.697c2.959-0.779,5.789-1.956,8.421-3.505
		c-0.085-0.533-0.128-1.073-0.128-1.615C92.238,115.188,96.838,110.587,102.492,110.587z M61.045,95.129l0.164,0.685l-5.544,0.693
		l-0.018-0.697c-0.11-4.749,1.292-8.675,4.17-11.671c4.654-4.847,11.751-5.852,14.319-6.059l-2.213-4.719l15.882,6.041l-2.64,0.273
		C70.9,81.152,65.107,85.409,62.759,88.72C60.36,92.098,61.039,95.1,61.045,95.129z M94.722,90.421
		c-0.136,14.802-14.181,17.686-17.98,18.194l2.355,4.676l-16.235-5.646l2.839-0.286c10.13-1.019,17.172-3.909,20.928-8.588
		c3.104-3.862,2.705-7.602,2.698-7.641l-0.069-0.603l5.471-0.849L94.722,90.421z"/>
</g>
</svg>
